/* XPM */
static char *_2ee4676c88e41c8d30f763beff29e85ytbNcMGIF0fdGhdJ[] = {
/* columns rows colors chars-per-pixel */
"128 128 44 1 ",
"  c #464646",
". c #4D4D4E",
"X c #4E4E50",
"o c #4F5052",
"O c #535355",
"+ c #575759",
"@ c #585759",
"# c #57585A",
"$ c #59595B",
"% c #5E5E60",
"& c #5F6062",
"* c #636365",
"= c #666769",
"- c #67686A",
"; c #696A6C",
": c #6E6E70",
"> c #6F7072",
", c #727375",
"< c #767779",
"1 c #77787A",
"2 c #7B7B7D",
"3 c #7E7F81",
"4 c #7F8082",
"5 c #828284",
"6 c #868688",
"7 c #87888A",
"8 c #898A8C",
"9 c #8E8F91",
"0 c #8F9092",
"q c #929395",
"w c #959698",
"e c #97989A",
"r c #9A9A9C",
"t c #9D9EA0",
"y c #9FA0A2",
"u c #A3A4A6",
"i c #A6A7A9",
"p c #A8A7A9",
"a c #A7A8AA",
"s c #A9AAAC",
"d c #ADAEB0",
"f c #AFB0B2",
"g c #B1B2B4",
"h c #B5B6B8",
/* pixels */
"asssssssdaadaassssaaaaassssssassasadadasaaasssssssssssssssassssssssssssssasassssssssssassssasssssssdt33333rassssssaaiasssssssasi",
"aassssasaaassaasassssaayasassassdadaaiasddsaasaasaasaasasaasaasaaasasaaasaaassssssssaasssaaaasaasaidt33333rssassaaassssaassssssu",
"aaassssaasaassassaaaaaaiassssassdasaaiaaaaadsassasasssasssssssssssaassssaaaassssssssssaiaassssssiiidt33333wssssssssssssssssssssu",
"sssssdssssdsdassssssssasssssssssaaddsddasddasssssssssssssssssssssssssssssssasdssssssssaasdsssssssdsft36353tdssssssdssssaissssssu",
"uiiiaiiiaiiaiiiiaaaayiassasssassaadassppaiaaaaaaasssaaaaiiiuiuiuaissaassasaassssssssaissauiaaiiiiiuat33655tsuusuiiiiiiiisssssssu",
"6676675656657655467747adsssssassdssssst866446746474447747776666674488443qsasssssassaasssaw556666677963335367666666636qssspsssasi",
"2233343323233223434433yaassssssssssssdu5343333333333333333333333333333430ssaassaaaaaiiissw3333333333363345333333333339sssipppipi",
"4456655455554455444737aaassssasssasaadu5244443444444474463366356344434730ssaassaaaaaisspsw3355333336336344433344333339sssipppisp",
"3644464444445555444444ysaaasaaassssppsu5365555534444333347443553444334330sssssssppspppusdw2454333333333335353444457439dsuissiaat",
"2444666676775676447447afdfdfffdfddddddu733355576488866874466555694434433qfffdffdddddddsdfq4544458767335666664476534439fdsdsdddds",
"45466<<2<<1111<<447447ttttyyttyytttttyr565561<11,3333,,364346565449449939tyytutttttttyyttq555543>33333,3>33333,3774449uttttttttt",
"43464&o+++++#OoO:744444433444333343344435555=OOOOOoo++o%366455554444444433333333233433445445562%o#OoOOOOO@Oo@oO*333444433333333<",
"64444&o#+#$###++>744444444474444554434555546:+O+%O+++%O%334435534444443444433444445554444445553%O%#O##O@##$O$$o%3533454453353333",
"44446=+###$$#$$+:444744444444444554455334436:O$+O%O%%O%-663555554444334444443444444554454545454*O###$#$@#$$#$#O%3753544535533333",
"66447&####$$$$$O:764444444444444555555555556:O%$#O%O++o&635555554444434944444444545555545555553$o###$#$##$$$$$O*5653555555555533",
"64667&+###$$$$$#:664474747747744565555655656:#$$%%O%%++&365655554444444444449494555655555555554*#%#%%#$#$$$$O$$*3555556556655553",
"**-*=%@$$$%$$$$#*;===*-**-*==**====*****=*;:*#$$%@@@$$$@=====---3*-333493&-*---***------=======$$$$$$$$$$+$$+++%-*=******=****=*",
"O+$+@$@@#$$$$$$###+#@O#+O++$#+O++$+++++++++#@#$@$$$$$$$+$O+#O#+#OO#34344:oo#O##OO#O##O#O@@O@@O@O$$$$$$$@$%$+$+++$++#+@@++#++#+OX",
"##+++@@@+$$$$$$$##++#$$$#+#$$++$$$$##$$$$$#$$$$$@$$$$$$@#+$#$$$###%34449-o####%#%###$$##$$$$$$$$$$$$$$$@$$++++++$$+@@$$$###+#$#o",
"$$$$$$$$$$$%$$##$###$$$@+$$$$$$$$$$$$$$$$$$$$$$#$$$$$$@@$$$$$$$###%394343##%%######%%$$$$$$$$$$$$$$$$$$$+%%$$%%%$$$$$%$$%$$%$$#o",
"OOOOOOOOO+O+OOoOOO+O+O++@$$O++OO+OOOo+o+OOOOOoOO+OOXOOOO+OO+OOOOOo#34334;ooOOOOOOOOOoOOOOooooOOOoooOOOXoO++OOOOO+oOOO+OOO+OO#OOX",
"*==*=**&***&*&*****%*&$%%&%%**&*******&&**%*************=********&-349493&*******===***%*********************&*****&***********%",
"puiupuuuuupuuuuiuuiupt733559upuuiuuuiuyauuiiuuuuupuuuupupuuuiiiiuuusuadsayyuuaauuuupuuuuupuuuuuuuuppupuuuuuuuuuupuuuuuupuuuuuput",
"dddfddsddfdfddddddddhs93555qdddddsddddffdddddddddsdddddddddddggdddffssdsddsdddddsdddfdddsdddddfsdddssddddddddsddddddsddssddddddp",
"ipasssauaayaaaaaaaaasy533539pppdsaasaassaaaaiiiippppiassapaaaaiiasssssssaaaaasssupsusaaaaaaiaiiippaaaaaassssaaasasaaaaaapppiiaai",
"ppasdassaassaaasaaaadi735539ppaaaasassssaaaaiaaappppiiasssspaapaaassssssssaassssssssaaaaaiiaaaaappauppaassssassssaaaaiaappipiapp",
"apdsssasaassssdssdsssi74533qddsdsddffsdsaaiaaaddddsdsddgddddsssssaassssssaaasdaisssdassdsssfsfdsdddddsddddddddddddsdsddsdssssppu",
"asasssssaaatwwwwwwwwww643327eeeeteettwtaaaaaywweeeeerwreeeeqeussaaassssssasasssassssrrrrrwrwwwwrwwwweeeeeeewweeeeereeeeeerrisppu",
"aassssaaaat43444333346345533333344443,6idadaw2<23333334444335edpassssssssaaassdassdu433333333333334443345554444444444443323rsssp",
"saasdsaaasy3344544443634445453534444427adiidw3463443345555553edpaaassssassaasssuusdu434333355555444444444545454454444444334tsaau",
"ssssssssasy7344444444544445545537444447asaidw2654545545553553rspssssssssssassssasssi555555335333444444454465545555555554543tdaau",
"sssasaassdt4463544744555455553554444337adaddw2453445535653553rdsdaassssssssssddssssy455555563333545555555554455554555555433ydsap",
"asassppppst5553753555553356555553535558uspspw4556633544555655rppdpppspspspsssspppppy656555554572454444444457445555554644444tssay",
"7997889999953555,*****=***==***==35455589789655553=*-**>555539990908898880889088899835445553555;**---*-***1545555454464646478886",
"3333233233335553=oOO+OOO+oO+OOOoX15555343223335361%X+O.*355536323232322233223325233434555555545$OOOOOOOOO+:65555545544646644254,",
"3333355555555555-o@#########$#$#O36336355555555363%O$+o*554555534455454554544656334565555554535$O+####O%+$>645556455644444445552",
"3353555554453555;+@$$$$$###$#+##O16345535555555553%O$$O*555335555445545544444553444644545544326$+$+%##O%$O>734446454444444545552",
"5566665656565665;+@$@@$###$$#$#++37555655655555575*O$$O=755565566665665566566666646665665655655$O$+##%O+++>966755445454656556565",
"311112112111<1<<=#$#$$#$#$%$$$$$+,2<1121111121211<%$$$#=111122<12<<22<<2<<<<2222<<<222221221111%$$+####%%$:31212756664,2<122221>",
"O+##$@@@@@@@@+o%@@$#$$#$#$$%$$$%#$++$@@@@@@@@@@@$$+$$$$$##$+O@@@@@@@+@@+@+@@+$O$@@@+$+O+++++++$++$++%++%$+$+++O&45456>OO@@@@O@O.",
"++##$$++@@@@@@o#++#$+$$#+@$$##+O@O+++#@#@@@@@#@@+$+$++$$++#$+###@@@O$@O$+@O@O$$O@@+$+$++++++++O$++$+@@$@+@$+++O&35336:O#@O##@#@.",
"##$$$$$$$@$$@@@$#$$$$$$$+##$###+#+$$#$#$$$$##$##+$+@++#$$#+$#$$#@@$$$$$$$$$$$$$$@@$$$$$$$$++$$+$%+$$$@$@@@$@$$+&35556:O$@@#####O",
"####+#$$@@$$$$####$$#$#$++$$##$$$@+@#$##$@@@####+@$$++@+####+#$$@@O$@$$@O+++$$$$++++++$++$$$$++#+++$@@@@@$@$+$O*25456:O$@##++@@.",
"OOoOOOooOOOOOoOoOOoooOOoOoOOOooOOOOOOOOOOOOooOoOOOOOOOOOOOOOOOO#@OO@OOOOOOOOOOOOOOOOOOOOOoOOOOOoOOOOO+ooOOOOOO.$<3323-oo.OOOoOO.",
"55657555556655555556565555555565555556555555555556555555555552:;:;,566666454566565655565555554655555655546555546eeeer94445555563",
"ddddddddddddddddddddddddddddddddddddddddddddddddddddddddsdddde54558pdsddddddddffddfffddddddddddfdddddddddddddgssfsssffafffffddds",
"dadasppppsssaaappspsppdaaadpppsspsppspssssaspssppsssssasaasasw34536udpsssppppdsapspsspppssasaaaasaaspsppassspspadadssdasaasppppy",
"aaappsppspadaaadaappspppaasappppspspppppppspsspsssppppsassassq36525ugpppasppppsaaaapsspsssaaasaaaaaspspsassppssasaaaasassssspppu",
"daadassdsdsdaaidasdadadaddssddsddddssddsppssssdsiiisaaddddsddw34536ugsppdsssssssassssssssspdaaasdssssssssdssssdsssddaddusudasasa",
"aauiyddassassaidaadaaaaappssspspspsppuussissssssasasaadasaasi066548yppppsppppsssaaasssssssppuasuassassssssssssssssaauiduaafaiaau",
"47547ysasaadassaq4646466666677777657568uspsssssssu8444666666644435465554655565rdsaspsssssssasda83556565666666666666640aasiu06563",
"33333tsssssssaaa92333333333333334444315ussssssssdi7232334444444555453453333323edsasppsssssssasa51332333443443543443229dsssa8222<",
"74433ydsssssppppw4443444555555555555536isiasssspsy7364445555555555353555655535tdsppasssssssaaaa73535445555555555454540daiis82452",
"34436usaspssippsq3443444555555555545538ispssssspdi6<44465445544355435544445436rsspaapsspasaasaa6253344455555555555653qdsisd83452",
"44737ydsssdsssddw3343646655553554555516adssdddddfa7364465554454535546557554445rgssdssdsddsdddfa92555555777665664645430dfads94532",
"74444wwtrrrrrree733644<>,:,<53355555536errreeeeere63644455444555554:::,:154345qrreeeerrererrrtw633454,,>,,,,>,,<544448rterr74342",
"7344564333333333444753%OOO+=535555555545434433333322555555443554463$OO+O=554455433343333333355455554,+O+$$$+O$+&4545555424522554",
"7347533332345533344463%O$++=553555544444354453354444535555445545443*O+$O=554455443344333333654344356,#O+$$+++$+&4534454433343442",
"7444543554455533444453%++$+=655546545544444555554444335545545555443$O$$O;655355454555535445444444446,##$$$$$$$+&4555544454344442",
"5746555555553355644452%++++=554454555555544435554443356554443355463$$$$O;555445545565555554444645436>O+#$$$$++O&4655544333444452",
"7765767767775556565375*$$+#;575766656556655555556655565564554576662*+$$O:8776875556766666665656555681%+#$$$$$$+=5756566665656553",
"====----;-;;======:=;=$#++#&;;--;;;=------======-====;=:54654,;==:=$$$$$*=;=-;:========;========;=-:*$$$$$$$$$O$;;============-*",
"OOOO++++@@OO+OOOO+OX+++$$$$+OOO@++++OOOOOOOO+OOOOOOOOOO%44453=OXO@@O+$+OOO+OO++O+OO+@OOOOOOOOOOOOOOOO+$#$$$$$$$$$OOOOOOOOOOOOOO ",
"%##$$$$$##$$$$@@##$$$$++$$$$#$$$$$$$$###$$+$@$@@#####$O*66456;++$@@@$$+++$$++$$$$@$%$@@++++$+$+$$++$$$$#$$$$$$$$$O$$$+$+$+$+$++O",
"$$#%#$#%$$#%$$$$$$++$$$$$+$$++$$%$&$$$$$$$$$$$$$$#$$$##*54455-#$$$$$$$$++$$$$$%$#$$%$$$$$$$$%$$$$$$$$$#$$%#%##$$&#$$$$$$$&$$$$#o",
"OoOOOOOoOoOOOoOOOoOoOOOO+o++OOOOOOOoOOOoOOOoOoOoOOOoOO.&34344-.O.OOOO.O.oOOoOOOOooOOOOOoOOOOoooooooooOOoOOOoooOO#ooOooOoooOo#OO.",
";;;;;;;;-;;==;==-----=%*&&**====----------------------*,787801--;===--;;;----;-;;;;;;------;;;;;;;---;---;--;-;---;;;;---*:*&*&$",
"ssaasauauauauaaaaauauu855559uaaaiiiiaaaaaaaaaaaaaaaaaauaddaadaiiappssassaauuaapsssssaiiaiiaaiiaassisaaaaaaaaaaaaasisaaiiaai95552",
"sssssssssssssssspssdda755340sfsssassddsddddsddsddddsdsddaaaassfsassssdsssssssddssssssdsdsfsssssssdsffdssdddsdddffsfssfssdgf93542",
"asasaasaaaaaasaaapauau545540spasaaaaasaaaaaaassaaasasassaasssssassasaaasssaaassasasaasssassiisaiasaaaaaaadaaaaaaasississass83552",
"aaaaaasssssssssssssasa544440sapssssssasasasaaasasaaasaassssaaaiissapapspasaasssaiaaaassssssssssaasasaaaaaadaaaaasiiiiisssif92551",
"ssssssdsddssssdssdssfa624559ssssdsdssaasssasssssssssssasssassdssfssssssssssssdssssssssassssssssdssssssssadsaaassssssssssssf92552",
"wqeeeeeewwwwwwweweeeeq634448qwrwewqqwqedsaaaaaaaaaaaaaassasssrqewewewwwwwweeweewewweeweweqeeeqqasaaaaaaasssaaaassspapt0errq64352",
"222242443223222222223344543433343332215uaaaaaaaaaaaaaaaaasaaa8232232223232232232222422222222125usaaaaiaaassaassaapssse4222432541",
"244555445555544444554455644654455555337isassasaaaasasassspsssq442554545444544444344444443355335ufsassassssssaaadsssssr4433555442",
"444455423355544555344454444444445555527idssasaassaasaasssssssq344554454544444444444464445543335ysaaaasisssssadaassssse2333334442",
"444455555555435343355555444664655554537adassasaassaassssssssdq454345555555456544445654443334555usssaassssdsassdassssdr3455445553",
"245555555555555555555555646666445554537adsssssssssssssdsdssds0444465556555554564444555445435545ufssssssssddfsddfsssssr4355555552",
"54547=&**&;55555554453=&*****$***2655557888788878888888777778645552=%&&%&*&*&&144445555555555557888788474848449487887755555=%*&+",
"44447&o++O-54333535552#OOOO@@OOO#1543333333434333443334442344454452$O++O++O+O+>64444544555434444444444555545555543334444557&O$OO",
"54556*O$+O-55454545554*$OO$$@O$$#1435445445555454545445555445555562%O$##$$+++$<54545544555554545455444555555445444455455455*+$$O",
"44446&$$+O=55554455554$$$$$$$$$$#1644454454445554454455455544444442%#$$#$$$$+$<54555555555544445544455444455544554444544556*+$+o",
"54557=O$$O-55555556563$O$$$$$$+$+2655655655555655555646555555665662%+$$$$$#$+$<65655655544555555655555566555555664565555557*O++O",
"22223%$$$O=22222221232*$$$$$$$$$#,311222222122122222222222112223222%+$$$$%$$$$,212<2555443222222222222112212122222122222223&+%%.",
"#$%$%+$$#+#$$$$$+$$$$%+$$$$$$$$$+$$$$$$$$$$+#$##$$$#$$$$$$$$$$$$$$%$$+$+####$$&$#$O&54445:$$$$$$##$##$#$#$$$#$$$#$$$$$+$$$%++$$.",
"O+O#+$+$$+++O+O++++O+++$+$$$$$O@$#+O++++++$OOOO#OO$$++++##$O$$O$+OO$#$+$####$$$Oo$+%44556;++$+$#+O+#+O++O##+++++++++++++++O+++@O",
"###$$$###+##$$$$$$$++$++$$$$$$$$#$#+$$$$$$#++##$$$$$$+##$$#$$&$$$$$O+++O+$++$$$$$$+%55555;##$+$#$###+$+$%$$$#$%$$$$$+$$$$++++$+.",
"####$$#$+$$$$$$$$$$$$$+$$$$$$$$$$$$$$$$$$$+#$$#O+$+O+$$#$#$#$$$$$$$++++$+$+$$$$$$+o&85446:+##$##+$##$#$$$$$$#$$$$$#$$$$$$$$$$$$.",
"...o...........oo.o.ooO....OO....OO........OOO++OO...................o......oo.oo..$22223*.....o.........o.....o............OO. ",
"788899777888977878778888879888888888988888882>,,><5888889888998788888888876677887886rrtrrq87778887777777889777888878888788788886",
"gggghgggghghggggffffggggggghgggggggggggffgggt56658ighghhgggghhggghggggggfgggggggghggdddddgggggggggfggggggfgghfffhfgghfghggghgggg",
"asuadsuassppppppaaaaaaaasassassssssassasapidw14444tdssasssppiispapppasasiiaiissappppsiisdsaaaaaaaaaaapppaaiiaaaaaapaiaaapppppppu",
"ssaassussiissipiaaauaaaassssasssssssssassaipw23345ydiaaassiappdpaaaaassaaasaussapssisaisassaaasaaaaaaaaaiiiiaaaaaaaaiiaaappupppu",
"fssddsssussdddddsddddsddsddssasssssssssdfssdw34445ugsadddsssssppdpaaaaaapsssadsappaasssiusddsdsddsdddssfddddsddssdssddsassdpddpp",
"uuuuussisssiuuuuuuuuuuuuuuuasaasasaapsauyiii044455raiiiuuuuuypppssaaaasaauuuuassspsiiissaauuuuuuuuuuuuuuuuuuuuuuuuuuiassiadutuut",
"68857ysusdt8776677777777866qasaaaaaaasy9677763445377477767656rspassssssse78777rsssssssissw776777777777788777777777776qasispq5685",
"25325usasdr54534444444444548ssaappdpady5242442544444244433332eppasaadppde22335rdsssppppppw3433332433333343554444444320saasu72242",
"25635ufaasr54565556555555549ssaappppidi5254544554555555555543tdpasaapppde33536rddppppdppdw3445455555555555555555555430daaad94642",
"23632usaadt65555644455555439sssappppisu5255455245555555435654rdpssspsspde33535rdppppsdppdw3444345554545355445555545329sauuf84542",
"33553ufsdft54555454655555440dssfddsdddu5244457566555565656445rdgssddfddge33535rgffdddddddw4445466556656657556455554540ddddf92542",
"35336errttq65555645555645558rrrrrrrrrre624452>>,,,,,,,>146345qrtterrreer0355450rrrrrrrttr844453,:,,<,,,<,,254555555348rrttt74542",
"35354533335555556454555454545323222222524445;oO+OOOOOOo=362445334244333333553453223423323344462%oOOOoOooOO>744555444343232444552",
"56555555355565545646544455555554555555555556>OO$##$#$$O=554456544545553355353555445555544663553%O#$##$#$+O,544555555555554556542",
"55535554555433535445556544554444555355555557>O+$$$$$$$O=654455554445353355535655444654555443544&O#$$$$$#++,744554335454454444442",
"55555555555555755555554555444449565555555546:O$$#$$#$+o*655565555546446465555655555665555555565&O$#$$+$$$$,655555555555455555552",
"55555555555544525545554455554444555555555546:O$+#$##$$+=555555555445445454333555555555555555554&##$#$$$++$,554555545545455554542",
"*=***********&**,54552-*&---**--*=***=***=*;%O$+$#$#$$+$;==**==***;26456,***===****=*******=*==+#$##$+$$$+*==**==***=*==*******$",
"OOOOO+OOOOO+OOOO>44551$ooOoOOOOO+OOOOOO+OOO+O+++%#$$$$$O+.OOOO+OOO&<6445;OOOO+OOOOO++O++OOO++OOO#$#$$$$+++$+oOOO#OOOOOOOOO+OO#O ",
"$$$$$$#$$$$$##++>84584&#$$$%###%$$$$$$$$$$$$$$$+##$#$#$$+$++$$$$$+&26366,O@$$$$$$$$$$$$$$$$$$&$$##$#$$$++$$++$$$#$$$$$$$$$$$$$$O",
"$$$$$$$+$$$##$++>45545&o##$$####$$$$$$$$$$$$$$$$$#$$$$$%O++++%++$O&45355,+@@$$$@@$%$$$$$$$$$$$$$#%$++#++$$$$$$$$#$$$$$$$$$$$$$$O",
"++OO++OOO++++Ooo>54444#oO##OOOOO++OO+OOOOO++O+OOOOOOOOO$O++++$+OOO$25245:OO+O+@OOO++++++O+OOOOOOOO++++$++O+OOOOOOO#O+OO+O+++O+O ",
"=**==*&********=284445;-******&-************&**&****&&==%%%%%==**&=587892&%***=*******&&***=**=**&*-*%%&&%*=*****&****&*&&*&&*&&",
"ppiauauaaaaaiiaissisasuiaiaaaaaappppupipiipiiiiippppuupt33355ruupuuisaasauuauppuiuiuppaiiupuiuaupuupe54445wpiuiaaiaiaiiiiiipiipu",
"sssssdsdsdddsdfasaidsfsfdfdfsssdddddsdddddddddddsdddffgu53653tgdfddssssfsdsfddfsssdddddddddddsdsdddgt52545rffddddddddddddddddddp",
"paaassaapsaaaassssasssaaiaasaaiappupppppaaipaaaapppppppy35642rsppappaasssaaaasppaasaippaaaipassapppsr34544esppaaaaiiaaiaiiiippuu",
"aassdpasssadadssssssssssassssaaapppppppsppppsaaaspppppdu23462espsspsaaasapssaspssussspsaspspsaaapipde33554rssddssadaaaiaissppppu",
"dssfdsssssssssssssssssssasasssaiuddssddddddddddddddssdfu53334tgdsssdsfsssassasssfaassdsdsssffsdddddft44544rssssssssassiddddddddp",
"qqqq0asssssssssssssssssssssssaasdrqqqqqqqqqqqqqqqqwqwqwq556540wqeeqqqqq0rsssasssspsaqwqqqeqqqqqqqwqw045544rsssssadsasuqewqqqqqq9",
"35332idsssssssssssssssssasssssasd6243444444444444333334525554622432444410sssassassfy4434444444444424425554rsssssssssde2423444432",
"53351udsdsssssssssssssssassassaas8254545545545544454454533522664434445310sssassisasu5444444555554544445544rsssssssaddw2554554442",
"53353yssaaassaaassaassaaaasasaaap8453455443555455444544434443664424455220sssassisppp5456644445544444455544rsppaspspsde2554545552",
"33343udsssssssssssssssssssssssssd835546555555555555665566555464444446442qfsssdfadsdu5344546665556566554545rdssssssssde3444655562",
"55333yaaaiaaaaaaaaaaaaaaaaaaiaadd8253463355454445444445544432444644444420aaassaudsst6544442444444354464545rpsaiaaaupse4432634232",
"653548868788887777787778777877788535552=%*%********&******&&*2445444644458887888888724444,***&**&&&&:5554468777878888624554;&&&$",
"635543222222222222222222223222222555562$OOOOOOOOOOOOOO++OOOOO,645554644433342333323434454;O+++O+O++.*4544554222222324424554&O+O.",
"63455545545555545555555555555445554245<$O$$$$$$$$$$$$$$$$$$$O,645445444545555655555554446;O$+$+$+$$O=5544665555455554524455*O$$O",
"555555454444554454545454554544445555462+O$$+$+O$$+++++$$$+$O$,645455444454545555535445348;O$$++#++$O;4554554454444533455565*O++.",
"66556656656665665755645245566656655556<$OO$$$$$$$$$$$$$$$$$$$,656656666656555665565665555;$$$$$##$+O;5755665656666556655574=+$$O"
};
